~*~*~*~*~*~*~Rihanna-Cheers (Drink To That) 720p (Shy_Rage)~*~*~*~*~*~*~



===================================================================
~*~*~*~*~*~*~*~*~*~~*~*~*~*~*~*~*~*~*~~*~*~*~*~*~*~*~*~*~~*~*~*~*~*
===================================================================

General
Complete name                    : Rihanna-Cheers (Drink To That).MP4
Format                           : MPEG-4
Format profile                   : Base Media / Version 2
Codec ID                         : mp42
File size                        : 93.6 MiB
Duration                         : 4mn 41s
Overall bit rate                 : 2 793 Kbps
Encoded date                     : UTC 2011-08-26 17:47:28
Tagged date                      : UTC 2011-08-26 17:47:28

Video
ID                               : 1
Format                           : AVC
Format/Info                      : Advanced Video Codec
Format profile                   : High@L3.1
Format settings, CABAC           : Yes
Format settings, ReFrames        : 1 frame
Codec ID                         : avc1
Codec ID/Info                    : Advanced Video Coding
Duration                         : 4mn 41s
Bit rate                         : 2 639 Kbps
Maximum bit rate                 : 6 169 Kbps
Width                            : 1 280 pixels
Height                           : 720 pixels
Display aspect ratio             : 16:9
Frame rate mode                  : Variable
Frame rate                       : 23.976 fps
Minimum frame rate               : 23.810 fps
Maximum frame rate               : 24.390 fps
Color space                      : YUV
Chroma subsampling               : 4:2:0
Bit depth                        : 8 bits
Scan type                        : Progressive
Bits/(Pixel*Frame)               : 0.119
Stream size                      : 88.5 MiB (94%)
Tagged date                      : UTC 2011-08-26 17:47:29

Audio
ID                               : 2
Format                           : AAC
Format/Info                      : Advanced Audio Codec
Format profile                   : LC
Codec ID                         : 40
Duration                         : 4mn 41s
Bit rate mode                    : Variable
Bit rate                         : 149 Kbps
Maximum bit rate                 : 202 Kbps
Channel(s)                       : 2 channels
Channel positions                : Front: L R
Sampling rate                    : 44.1 KHz
Compression mode                 : Lossy
Stream size                      : 4.99 MiB (5%)
Encoded date                     : UTC 2011-08-26 17:47:28
Tagged date                      : UTC 2011-08-26 17:47:29

===================================================================
~*~*~*~*~*~*~*~*~*~~*~*~*~*~*~*~*~*~*~~*~*~*~*~*~*~*~*~*~~*~*~*~*~*
===================================================================


Please SEED And RATE My Torrents!!